<?xml version="1.0" encoding="UTF-8" standalone="no"?>
<!DOCTYPE svg PUBLIC "-//W3C//DTD SVG 1.1//EN"
 "http://www.w3.org/Graphics/SVG/1.1/DTD/svg11.dtd">
<!-- Generated by graphviz version 2.38.0 (20140413.2041)
 -->
<!-- Title: controllers_diagram Pages: 1 -->
<svg width="452pt" height="356pt"
 viewBox="0.00 0.00 452.03 356.00" xmlns="http://www.w3.org/2000/svg" xmlns:xlink="http://www.w3.org/1999/xlink">
<g id="graph0" class="graph" transform="scale(1 1) rotate(0) translate(88.8208 233.5)">
<title>controllers_diagram</title>
<polygon fill="none" stroke="none" points="-88.8208,122.5 -88.8208,-233.5 363.212,-233.5 363.212,122.5 -88.8208,122.5"/>
<!-- _diagram_info -->
<g id="node1" class="node"><title>_diagram_info</title>
<text text-anchor="start" x="160.788" y="-212.1" font-family="Times,serif" font-size="13.00">Controllers diagram</text>
<text text-anchor="start" x="160.788" y="-199.1" font-family="Times,serif" font-size="13.00">Date: Nov 01 2016 &#45; 08:30</text>
<text text-anchor="start" x="160.788" y="-186.1" font-family="Times,serif" font-size="13.00">Migration version: 20151114180106</text>
<text text-anchor="start" x="160.788" y="-173.1" font-family="Times,serif" font-size="13.00">Generated by RailRoady 1.3.1</text>
<text text-anchor="start" x="160.788" y="-160.1" font-family="Times,serif" font-size="13.00">http://railroady.prestonlee.com</text>
</g>
<!-- ApplicationController -->
<g id="node2" class="node"><title>ApplicationController</title>
<path fill="none" stroke="black" d="M-72.8208,-137C-72.8208,-137 42.8208,-137 42.8208,-137 48.8208,-137 54.8208,-143 54.8208,-149 54.8208,-149 54.8208,-217 54.8208,-217 54.8208,-223 48.8208,-229 42.8208,-229 42.8208,-229 -72.8208,-229 -72.8208,-229 -78.8208,-229 -84.8208,-223 -84.8208,-217 -84.8208,-217 -84.8208,-149 -84.8208,-149 -84.8208,-143 -78.8208,-137 -72.8208,-137"/>
<text text-anchor="middle" x="-15" y="-213.8" font-family="Times,serif" font-size="14.00">ApplicationController</text>
<polyline fill="none" stroke="black" points="-84.8208,-207 54.8208,-207 "/>
<polyline fill="none" stroke="black" points="-84.8208,-183 54.8208,-183 "/>
<polyline fill="none" stroke="black" points="-84.8208,-159 54.8208,-159 "/>
<text text-anchor="start" x="-76.8208" y="-143.8" font-family="Times,serif" font-size="14.00">_layout</text>
</g>
<!-- CommotsController -->
<g id="node3" class="node"><title>CommotsController</title>
<path fill="none" stroke="black" d="M97,84C97,84 201,84 201,84 207,84 213,78 213,72 213,72 213,-106 213,-106 213,-112 207,-118 201,-118 201,-118 97,-118 97,-118 91,-118 85,-112 85,-106 85,-106 85,72 85,72 85,78 91,84 97,84"/>
<text text-anchor="middle" x="149" y="-102.8" font-family="Times,serif" font-size="14.00">CommotsController</text>
<polyline fill="none" stroke="black" points="85,-96 213,-96 "/>
<text text-anchor="start" x="93" y="-80.8" font-family="Times,serif" font-size="14.00">create</text>
<text text-anchor="start" x="93" y="-66.8" font-family="Times,serif" font-size="14.00">destroy</text>
<text text-anchor="start" x="93" y="-52.8" font-family="Times,serif" font-size="14.00">edit</text>
<text text-anchor="start" x="93" y="-38.8" font-family="Times,serif" font-size="14.00">index</text>
<text text-anchor="start" x="93" y="-24.8" font-family="Times,serif" font-size="14.00">new</text>
<text text-anchor="start" x="93" y="-10.8" font-family="Times,serif" font-size="14.00">show</text>
<text text-anchor="start" x="93" y="3.2" font-family="Times,serif" font-size="14.00">update</text>
<polyline fill="none" stroke="black" points="85,10 213,10 "/>
<polyline fill="none" stroke="black" points="85,34 213,34 "/>
<text text-anchor="start" x="93" y="49.2" font-family="Times,serif" font-size="14.00">_layout</text>
<text text-anchor="start" x="93" y="63.2" font-family="Times,serif" font-size="14.00">commot_params</text>
<text text-anchor="start" x="93" y="77.2" font-family="Times,serif" font-size="14.00">set_commot</text>
</g>
<!-- PostsController -->
<g id="node4" class="node"><title>PostsController</title>
<path fill="none" stroke="black" d="M-72.6553,118C-72.6553,118 40.6553,118 40.6553,118 46.6553,118 52.6553,112 52.6553,106 52.6553,106 52.6553,-86 52.6553,-86 52.6553,-92 46.6553,-98 40.6553,-98 40.6553,-98 -72.6553,-98 -72.6553,-98 -78.6553,-98 -84.6553,-92 -84.6553,-86 -84.6553,-86 -84.6553,106 -84.6553,106 -84.6553,112 -78.6553,118 -72.6553,118"/>
<text text-anchor="middle" x="-16" y="-82.8" font-family="Times,serif" font-size="14.00">PostsController</text>
<polyline fill="none" stroke="black" points="-84.6553,-76 52.6553,-76 "/>
<text text-anchor="start" x="-76.6553" y="-60.8" font-family="Times,serif" font-size="14.00">create</text>
<text text-anchor="start" x="-76.6553" y="-46.8" font-family="Times,serif" font-size="14.00">destroy</text>
<text text-anchor="start" x="-76.6553" y="-32.8" font-family="Times,serif" font-size="14.00">edit</text>
<text text-anchor="start" x="-76.6553" y="-18.8" font-family="Times,serif" font-size="14.00">get_random_question</text>
<text text-anchor="start" x="-76.6553" y="-4.8" font-family="Times,serif" font-size="14.00">index</text>
<text text-anchor="start" x="-76.6553" y="9.2" font-family="Times,serif" font-size="14.00">new</text>
<text text-anchor="start" x="-76.6553" y="23.2" font-family="Times,serif" font-size="14.00">show</text>
<text text-anchor="start" x="-76.6553" y="37.2" font-family="Times,serif" font-size="14.00">update</text>
<polyline fill="none" stroke="black" points="-84.6553,44 52.6553,44 "/>
<polyline fill="none" stroke="black" points="-84.6553,68 52.6553,68 "/>
<text text-anchor="start" x="-76.6553" y="83.2" font-family="Times,serif" font-size="14.00">_layout</text>
<text text-anchor="start" x="-76.6553" y="97.2" font-family="Times,serif" font-size="14.00">post_params</text>
<text text-anchor="start" x="-76.6553" y="111.2" font-family="Times,serif" font-size="14.00">set_post</text>
</g>
</g>
</svg>
