<?xml version="1.0" encoding="UTF-8" standalone="no"?>
<!DOCTYPE svg PUBLIC "-//W3C//DTD SVG 1.1//EN"
 "http://www.w3.org/Graphics/SVG/1.1/DTD/svg11.dtd">
<!-- Generated by graphviz version 2.38.0 (20140413.2041)
 -->
<!-- Title: controllers_diagram Pages: 1 -->
<svg width="452pt" height="551pt"
 viewBox="0.00 0.00 452.10 551.00" xmlns="http://www.w3.org/2000/svg" xmlns:xlink="http://www.w3.org/1999/xlink">
<g id="graph0" class="graph" transform="scale(1 1) rotate(0) translate(88.6553 343.5)">
<title>controllers_diagram</title>
<polygon fill="none" stroke="none" points="-88.6553,207.5 -88.6553,-343.5 363.45,-343.5 363.45,207.5 -88.6553,207.5"/>
<!-- _diagram_info -->
<g id="node1" class="node"><title>_diagram_info</title>
<text text-anchor="start" x="160.55" y="-212.1" font-family="Times,serif" font-size="13.00">Controllers diagram</text>
<text text-anchor="start" x="160.55" y="-199.1" font-family="Times,serif" font-size="13.00">Date: Nov 06 2016 &#45; 21:50</text>
<text text-anchor="start" x="160.55" y="-186.1" font-family="Times,serif" font-size="13.00">Migration version: 20161107024940</text>
<text text-anchor="start" x="160.55" y="-173.1" font-family="Times,serif" font-size="13.00">Generated by RailRoady 1.3.1</text>
<text text-anchor="start" x="160.55" y="-160.1" font-family="Times,serif" font-size="13.00">http://railroady.prestonlee.com</text>
</g>
<!-- ApplicationController -->
<g id="node2" class="node"><title>ApplicationController</title>
<path fill="none" stroke="black" d="M97.1792,203C97.1792,203 212.821,203 212.821,203 218.821,203 224.821,197 224.821,191 224.821,191 224.821,123 224.821,123 224.821,117 218.821,111 212.821,111 212.821,111 97.1792,111 97.1792,111 91.1792,111 85.1792,117 85.1792,123 85.1792,123 85.1792,191 85.1792,191 85.1792,197 91.1792,203 97.1792,203"/>
<text text-anchor="middle" x="155" y="126.2" font-family="Times,serif" font-size="14.00">ApplicationController</text>
<polyline fill="none" stroke="black" points="85.1792,133 224.821,133 "/>
<polyline fill="none" stroke="black" points="85.1792,157 224.821,157 "/>
<polyline fill="none" stroke="black" points="85.1792,181 224.821,181 "/>
<text text-anchor="start" x="93.1792" y="196.2" font-family="Times,serif" font-size="14.00">_layout</text>
</g>
<!-- CommotsController -->
<g id="node3" class="node"><title>CommotsController</title>
<path fill="none" stroke="black" d="M97,84C97,84 201,84 201,84 207,84 213,78 213,72 213,72 213,-106 213,-106 213,-112 207,-118 201,-118 201,-118 97,-118 97,-118 91,-118 85,-112 85,-106 85,-106 85,72 85,72 85,78 91,84 97,84"/>
<text text-anchor="middle" x="149" y="-102.8" font-family="Times,serif" font-size="14.00">CommotsController</text>
<polyline fill="none" stroke="black" points="85,-96 213,-96 "/>
<text text-anchor="start" x="93" y="-80.8" font-family="Times,serif" font-size="14.00">create</text>
<text text-anchor="start" x="93" y="-66.8" font-family="Times,serif" font-size="14.00">destroy</text>
<text text-anchor="start" x="93" y="-52.8" font-family="Times,serif" font-size="14.00">edit</text>
<text text-anchor="start" x="93" y="-38.8" font-family="Times,serif" font-size="14.00">index</text>
<text text-anchor="start" x="93" y="-24.8" font-family="Times,serif" font-size="14.00">new</text>
<text text-anchor="start" x="93" y="-10.8" font-family="Times,serif" font-size="14.00">show</text>
<text text-anchor="start" x="93" y="3.2" font-family="Times,serif" font-size="14.00">update</text>
<polyline fill="none" stroke="black" points="85,10 213,10 "/>
<polyline fill="none" stroke="black" points="85,34 213,34 "/>
<text text-anchor="start" x="93" y="49.2" font-family="Times,serif" font-size="14.00">_layout</text>
<text text-anchor="start" x="93" y="63.2" font-family="Times,serif" font-size="14.00">commot_params</text>
<text text-anchor="start" x="93" y="77.2" font-family="Times,serif" font-size="14.00">set_commot</text>
</g>
<!-- PostsController -->
<g id="node4" class="node"><title>PostsController</title>
<path fill="none" stroke="black" d="M-72.6553,118C-72.6553,118 40.6553,118 40.6553,118 46.6553,118 52.6553,112 52.6553,106 52.6553,106 52.6553,-86 52.6553,-86 52.6553,-92 46.6553,-98 40.6553,-98 40.6553,-98 -72.6553,-98 -72.6553,-98 -78.6553,-98 -84.6553,-92 -84.6553,-86 -84.6553,-86 -84.6553,106 -84.6553,106 -84.6553,112 -78.6553,118 -72.6553,118"/>
<text text-anchor="middle" x="-16" y="-82.8" font-family="Times,serif" font-size="14.00">PostsController</text>
<polyline fill="none" stroke="black" points="-84.6553,-76 52.6553,-76 "/>
<text text-anchor="start" x="-76.6553" y="-60.8" font-family="Times,serif" font-size="14.00">create</text>
<text text-anchor="start" x="-76.6553" y="-46.8" font-family="Times,serif" font-size="14.00">destroy</text>
<text text-anchor="start" x="-76.6553" y="-32.8" font-family="Times,serif" font-size="14.00">edit</text>
<text text-anchor="start" x="-76.6553" y="-18.8" font-family="Times,serif" font-size="14.00">get_random_question</text>
<text text-anchor="start" x="-76.6553" y="-4.8" font-family="Times,serif" font-size="14.00">index</text>
<text text-anchor="start" x="-76.6553" y="9.2" font-family="Times,serif" font-size="14.00">new</text>
<text text-anchor="start" x="-76.6553" y="23.2" font-family="Times,serif" font-size="14.00">show</text>
<text text-anchor="start" x="-76.6553" y="37.2" font-family="Times,serif" font-size="14.00">update</text>
<polyline fill="none" stroke="black" points="-84.6553,44 52.6553,44 "/>
<polyline fill="none" stroke="black" points="-84.6553,68 52.6553,68 "/>
<text text-anchor="start" x="-76.6553" y="83.2" font-family="Times,serif" font-size="14.00">_layout</text>
<text text-anchor="start" x="-76.6553" y="97.2" font-family="Times,serif" font-size="14.00">post_params</text>
<text text-anchor="start" x="-76.6553" y="111.2" font-family="Times,serif" font-size="14.00">set_post</text>
</g>
<!-- UsersController -->
<g id="node5" class="node"><title>UsersController</title>
<path fill="none" stroke="black" d="M-38.7139,-137C-38.7139,-137 42.7139,-137 42.7139,-137 48.7139,-137 54.7139,-143 54.7139,-149 54.7139,-149 54.7139,-327 54.7139,-327 54.7139,-333 48.7139,-339 42.7139,-339 42.7139,-339 -38.7139,-339 -38.7139,-339 -44.7139,-339 -50.7139,-333 -50.7139,-327 -50.7139,-327 -50.7139,-149 -50.7139,-149 -50.7139,-143 -44.7139,-137 -38.7139,-137"/>
<text text-anchor="middle" x="2" y="-323.8" font-family="Times,serif" font-size="14.00">UsersController</text>
<polyline fill="none" stroke="black" points="-50.7139,-317 54.7139,-317 "/>
<text text-anchor="start" x="-42.7139" y="-301.8" font-family="Times,serif" font-size="14.00">create</text>
<text text-anchor="start" x="-42.7139" y="-287.8" font-family="Times,serif" font-size="14.00">destroy</text>
<text text-anchor="start" x="-42.7139" y="-273.8" font-family="Times,serif" font-size="14.00">edit</text>
<text text-anchor="start" x="-42.7139" y="-259.8" font-family="Times,serif" font-size="14.00">index</text>
<text text-anchor="start" x="-42.7139" y="-245.8" font-family="Times,serif" font-size="14.00">new</text>
<text text-anchor="start" x="-42.7139" y="-231.8" font-family="Times,serif" font-size="14.00">show</text>
<text text-anchor="start" x="-42.7139" y="-217.8" font-family="Times,serif" font-size="14.00">update</text>
<polyline fill="none" stroke="black" points="-50.7139,-211 54.7139,-211 "/>
<polyline fill="none" stroke="black" points="-50.7139,-187 54.7139,-187 "/>
<text text-anchor="start" x="-42.7139" y="-171.8" font-family="Times,serif" font-size="14.00">_layout</text>
<text text-anchor="start" x="-42.7139" y="-157.8" font-family="Times,serif" font-size="14.00">set_user</text>
<text text-anchor="start" x="-42.7139" y="-143.8" font-family="Times,serif" font-size="14.00">user_params</text>
</g>
</g>
</svg>
