<?xml version="1.0" encoding="UTF-8" standalone="no"?>
<!DOCTYPE svg PUBLIC "-//W3C//DTD SVG 1.1//EN"
 "http://www.w3.org/Graphics/SVG/1.1/DTD/svg11.dtd">
<!-- Generated by graphviz version 2.38.0 (20140413.2041)
 -->
<!-- Title: models_diagram Pages: 1 -->
<svg width="517pt" height="109pt"
 viewBox="0.00 0.00 516.72 109.00" xmlns="http://www.w3.org/2000/svg" xmlns:xlink="http://www.w3.org/1999/xlink">
<g id="graph0" class="graph" transform="scale(1 1) rotate(0) translate(4 105)">
<title>models_diagram</title>
<polygon fill="none" stroke="none" points="-4,4 -4,-105 512.717,-105 512.717,4 -4,4"/>
<!-- _diagram_info -->
<g id="node1" class="node"><title>_diagram_info</title>
<text text-anchor="start" x="8" y="-72.6" font-family="Times,serif" font-size="13.00">Models diagram</text>
<text text-anchor="start" x="8" y="-59.6" font-family="Times,serif" font-size="13.00">Date: Nov 01 2016 &#45; 08:30</text>
<text text-anchor="start" x="8" y="-46.6" font-family="Times,serif" font-size="13.00">Migration version: 20151114180106</text>
<text text-anchor="start" x="8" y="-33.6" font-family="Times,serif" font-size="13.00">Generated by RailRoady 1.3.1</text>
<text text-anchor="start" x="8" y="-20.6" font-family="Times,serif" font-size="13.00">http://railroady.prestonlee.com</text>
</g>
<!-- Commot -->
<g id="node2" class="node"><title>Commot</title>
<path fill="none" stroke="black" d="M236.706,-0.5C236.706,-0.5 345.717,-0.5 345.717,-0.5 351.717,-0.5 357.717,-6.5 357.717,-12.5 357.717,-12.5 357.717,-88.5 357.717,-88.5 357.717,-94.5 351.717,-100.5 345.717,-100.5 345.717,-100.5 236.706,-100.5 236.706,-100.5 230.706,-100.5 224.706,-94.5 224.706,-88.5 224.706,-88.5 224.706,-12.5 224.706,-12.5 224.706,-6.5 230.706,-0.5 236.706,-0.5"/>
<text text-anchor="middle" x="291.212" y="-85.3" font-family="Times,serif" font-size="14.00">Commot</text>
<polyline fill="none" stroke="black" points="224.706,-78.5 357.717,-78.5 "/>
<text text-anchor="start" x="232.706" y="-63.3" font-family="Times,serif" font-size="14.00">id :integer</text>
<text text-anchor="start" x="232.706" y="-49.3" font-family="Times,serif" font-size="14.00">post_id :integer</text>
<text text-anchor="start" x="232.706" y="-35.3" font-family="Times,serif" font-size="14.00">body :text</text>
<text text-anchor="start" x="232.706" y="-21.3" font-family="Times,serif" font-size="14.00">created_at :datetime</text>
<text text-anchor="start" x="232.706" y="-7.3" font-family="Times,serif" font-size="14.00">updated_at :datetime</text>
</g>
<!-- Post -->
<g id="node3" class="node"><title>Post</title>
<path fill="none" stroke="black" d="M387.706,-0.5C387.706,-0.5 496.717,-0.5 496.717,-0.5 502.717,-0.5 508.717,-6.5 508.717,-12.5 508.717,-12.5 508.717,-88.5 508.717,-88.5 508.717,-94.5 502.717,-100.5 496.717,-100.5 496.717,-100.5 387.706,-100.5 387.706,-100.5 381.706,-100.5 375.706,-94.5 375.706,-88.5 375.706,-88.5 375.706,-12.5 375.706,-12.5 375.706,-6.5 381.706,-0.5 387.706,-0.5"/>
<text text-anchor="middle" x="442.212" y="-85.3" font-family="Times,serif" font-size="14.00">Post</text>
<polyline fill="none" stroke="black" points="375.706,-78.5 508.717,-78.5 "/>
<text text-anchor="start" x="383.706" y="-63.3" font-family="Times,serif" font-size="14.00">id :integer</text>
<text text-anchor="start" x="383.706" y="-49.3" font-family="Times,serif" font-size="14.00">question :text</text>
<text text-anchor="start" x="383.706" y="-35.3" font-family="Times,serif" font-size="14.00">body :text</text>
<text text-anchor="start" x="383.706" y="-21.3" font-family="Times,serif" font-size="14.00">created_at :datetime</text>
<text text-anchor="start" x="383.706" y="-7.3" font-family="Times,serif" font-size="14.00">updated_at :datetime</text>
</g>
</g>
</svg>
