<?xml version="1.0" encoding="UTF-8" standalone="no"?>
<!DOCTYPE svg PUBLIC "-//W3C//DTD SVG 1.1//EN"
 "http://www.w3.org/Graphics/SVG/1.1/DTD/svg11.dtd">
<!-- Generated by graphviz version 2.38.0 (20140413.2041)
 -->
<!-- Title: models_diagram Pages: 1 -->
<svg width="824pt" height="375pt"
 viewBox="0.00 0.00 823.73 375.00" xmlns="http://www.w3.org/2000/svg" xmlns:xlink="http://www.w3.org/1999/xlink">
<g id="graph0" class="graph" transform="scale(1 1) rotate(0) translate(4 371)">
<title>models_diagram</title>
<polygon fill="none" stroke="none" points="-4,4 -4,-371 819.728,-371 819.728,4 -4,4"/>
<!-- _diagram_info -->
<g id="node1" class="node"><title>_diagram_info</title>
<text text-anchor="start" x="8" y="-205.6" font-family="Times,serif" font-size="13.00">Models diagram</text>
<text text-anchor="start" x="8" y="-192.6" font-family="Times,serif" font-size="13.00">Date: Nov 06 2016 &#45; 21:50</text>
<text text-anchor="start" x="8" y="-179.6" font-family="Times,serif" font-size="13.00">Migration version: 20161107024940</text>
<text text-anchor="start" x="8" y="-166.6" font-family="Times,serif" font-size="13.00">Generated by RailRoady 1.3.1</text>
<text text-anchor="start" x="8" y="-153.6" font-family="Times,serif" font-size="13.00">http://railroady.prestonlee.com</text>
</g>
<!-- Commot -->
<g id="node2" class="node"><title>Commot</title>
<path fill="none" stroke="black" d="M236.944,-133.5C236.944,-133.5 345.955,-133.5 345.955,-133.5 351.955,-133.5 357.955,-139.5 357.955,-145.5 357.955,-145.5 357.955,-221.5 357.955,-221.5 357.955,-227.5 351.955,-233.5 345.955,-233.5 345.955,-233.5 236.944,-233.5 236.944,-233.5 230.944,-233.5 224.944,-227.5 224.944,-221.5 224.944,-221.5 224.944,-145.5 224.944,-145.5 224.944,-139.5 230.944,-133.5 236.944,-133.5"/>
<text text-anchor="middle" x="291.45" y="-218.3" font-family="Times,serif" font-size="14.00">Commot</text>
<polyline fill="none" stroke="black" points="224.944,-211.5 357.955,-211.5 "/>
<text text-anchor="start" x="232.944" y="-196.3" font-family="Times,serif" font-size="14.00">id :integer</text>
<text text-anchor="start" x="232.944" y="-182.3" font-family="Times,serif" font-size="14.00">post_id :integer</text>
<text text-anchor="start" x="232.944" y="-168.3" font-family="Times,serif" font-size="14.00">body :text</text>
<text text-anchor="start" x="232.944" y="-154.3" font-family="Times,serif" font-size="14.00">created_at :datetime</text>
<text text-anchor="start" x="232.944" y="-140.3" font-family="Times,serif" font-size="14.00">updated_at :datetime</text>
</g>
<!-- Post -->
<g id="node3" class="node"><title>Post</title>
<path fill="none" stroke="black" d="M387.958,-0.5C387.958,-0.5 580.941,-0.5 580.941,-0.5 586.941,-0.5 592.941,-6.5 592.941,-12.5 592.941,-12.5 592.941,-354.5 592.941,-354.5 592.941,-360.5 586.941,-366.5 580.941,-366.5 580.941,-366.5 387.958,-366.5 387.958,-366.5 381.958,-366.5 375.958,-360.5 375.958,-354.5 375.958,-354.5 375.958,-12.5 375.958,-12.5 375.958,-6.5 381.958,-0.5 387.958,-0.5"/>
<text text-anchor="middle" x="484.45" y="-351.3" font-family="Times,serif" font-size="14.00">Post</text>
<polyline fill="none" stroke="black" points="375.958,-344.5 592.941,-344.5 "/>
<text text-anchor="start" x="383.958" y="-329.3" font-family="Times,serif" font-size="14.00">id :integer</text>
<text text-anchor="start" x="383.958" y="-315.3" font-family="Times,serif" font-size="14.00">question :text</text>
<text text-anchor="start" x="383.958" y="-301.3" font-family="Times,serif" font-size="14.00">body :text</text>
<text text-anchor="start" x="383.958" y="-287.3" font-family="Times,serif" font-size="14.00">created_at :datetime</text>
<text text-anchor="start" x="383.958" y="-273.3" font-family="Times,serif" font-size="14.00">updated_at :datetime</text>
<text text-anchor="start" x="383.958" y="-259.3" font-family="Times,serif" font-size="14.00">image_uno_file_name :string</text>
<text text-anchor="start" x="383.958" y="-245.3" font-family="Times,serif" font-size="14.00">image_uno_content_type :string</text>
<text text-anchor="start" x="383.958" y="-231.3" font-family="Times,serif" font-size="14.00">image_uno_file_size :integer</text>
<text text-anchor="start" x="383.958" y="-217.3" font-family="Times,serif" font-size="14.00">image_uno_updated_at :datetime</text>
<text text-anchor="start" x="383.958" y="-203.3" font-family="Times,serif" font-size="14.00">image_dos_file_name :string</text>
<text text-anchor="start" x="383.958" y="-189.3" font-family="Times,serif" font-size="14.00">image_dos_content_type :string</text>
<text text-anchor="start" x="383.958" y="-175.3" font-family="Times,serif" font-size="14.00">image_dos_file_size :integer</text>
<text text-anchor="start" x="383.958" y="-161.3" font-family="Times,serif" font-size="14.00">image_dos_updated_at :datetime</text>
<text text-anchor="start" x="383.958" y="-147.3" font-family="Times,serif" font-size="14.00">image_tres_file_name :string</text>
<text text-anchor="start" x="383.958" y="-133.3" font-family="Times,serif" font-size="14.00">image_tres_content_type :string</text>
<text text-anchor="start" x="383.958" y="-119.3" font-family="Times,serif" font-size="14.00">image_tres_file_size :integer</text>
<text text-anchor="start" x="383.958" y="-105.3" font-family="Times,serif" font-size="14.00">image_tres_updated_at :datetime</text>
<text text-anchor="start" x="383.958" y="-91.3" font-family="Times,serif" font-size="14.00">image_quatro_file_name :string</text>
<text text-anchor="start" x="383.958" y="-77.3" font-family="Times,serif" font-size="14.00">image_quatro_content_type :string</text>
<text text-anchor="start" x="383.958" y="-63.3" font-family="Times,serif" font-size="14.00">image_quatro_file_size :integer</text>
<text text-anchor="start" x="383.958" y="-49.3" font-family="Times,serif" font-size="14.00">image_quatro_updated_at :datetime</text>
<text text-anchor="start" x="383.958" y="-35.3" font-family="Times,serif" font-size="14.00">block :integer</text>
<text text-anchor="start" x="383.958" y="-21.3" font-family="Times,serif" font-size="14.00">label :string</text>
<text text-anchor="start" x="383.958" y="-7.3" font-family="Times,serif" font-size="14.00">marker :string</text>
</g>
<!-- User -->
<g id="node4" class="node"><title>User</title>
<path fill="none" stroke="black" d="M623.172,-42.5C623.172,-42.5 803.728,-42.5 803.728,-42.5 809.728,-42.5 815.728,-48.5 815.728,-54.5 815.728,-54.5 815.728,-312.5 815.728,-312.5 815.728,-318.5 809.728,-324.5 803.728,-324.5 803.728,-324.5 623.172,-324.5 623.172,-324.5 617.172,-324.5 611.172,-318.5 611.172,-312.5 611.172,-312.5 611.172,-54.5 611.172,-54.5 611.172,-48.5 617.172,-42.5 623.172,-42.5"/>
<text text-anchor="middle" x="713.45" y="-309.3" font-family="Times,serif" font-size="14.00">User</text>
<polyline fill="none" stroke="black" points="611.172,-302.5 815.728,-302.5 "/>
<text text-anchor="start" x="619.172" y="-287.3" font-family="Times,serif" font-size="14.00">id :integer</text>
<text text-anchor="start" x="619.172" y="-273.3" font-family="Times,serif" font-size="14.00">created_at :datetime</text>
<text text-anchor="start" x="619.172" y="-259.3" font-family="Times,serif" font-size="14.00">updated_at :datetime</text>
<text text-anchor="start" x="619.172" y="-245.3" font-family="Times,serif" font-size="14.00">email :string</text>
<text text-anchor="start" x="619.172" y="-231.3" font-family="Times,serif" font-size="14.00">encrypted_password :string</text>
<text text-anchor="start" x="619.172" y="-217.3" font-family="Times,serif" font-size="14.00">reset_password_token :string</text>
<text text-anchor="start" x="619.172" y="-203.3" font-family="Times,serif" font-size="14.00">reset_password_sent_at :datetime</text>
<text text-anchor="start" x="619.172" y="-189.3" font-family="Times,serif" font-size="14.00">remember_created_at :datetime</text>
<text text-anchor="start" x="619.172" y="-175.3" font-family="Times,serif" font-size="14.00">sign_in_count :integer</text>
<text text-anchor="start" x="619.172" y="-161.3" font-family="Times,serif" font-size="14.00">current_sign_in_at :datetime</text>
<text text-anchor="start" x="619.172" y="-147.3" font-family="Times,serif" font-size="14.00">last_sign_in_at :datetime</text>
<text text-anchor="start" x="619.172" y="-133.3" font-family="Times,serif" font-size="14.00">current_sign_in_ip :inet</text>
<text text-anchor="start" x="619.172" y="-119.3" font-family="Times,serif" font-size="14.00">last_sign_in_ip :inet</text>
<text text-anchor="start" x="619.172" y="-105.3" font-family="Times,serif" font-size="14.00">blockyy1 :boolean</text>
<text text-anchor="start" x="619.172" y="-91.3" font-family="Times,serif" font-size="14.00">blockyy2 :boolean</text>
<text text-anchor="start" x="619.172" y="-77.3" font-family="Times,serif" font-size="14.00">blockyy3 :boolean</text>
<text text-anchor="start" x="619.172" y="-63.3" font-family="Times,serif" font-size="14.00">blockyy4 :boolean</text>
<text text-anchor="start" x="619.172" y="-49.3" font-family="Times,serif" font-size="14.00">blockyy5 :boolean</text>
</g>
</g>
</svg>
